<svg width="88" height="27" viewBox="0 0 88 27" fill="none" xmlns="http://www.w3.org/2000/svg">
<path d="M12.9648 0C20.1247 0.000256542 25.9287 5.83729 25.9287 13.0371C25.9285 20.2367 20.1245 26.073 12.9648 26.0732C5.80495 26.0732 0.000212706 20.2369 0 13.0371C0 5.83713 5.80482 0 12.9648 0ZM12.9639 4.43262C8.23835 4.43273 4.40723 8.2852 4.40723 13.0371C4.40743 17.7889 8.23847 21.6405 12.9639 21.6406C17.6894 21.6406 21.5203 17.7889 21.5205 13.0371C21.5205 8.28512 17.6895 4.43262 12.9639 4.43262Z" fill="#274B89"/>
<ellipse cx="12.9639" cy="13.0367" rx="3.88931" ry="3.91102" fill="#274B89"/>
<path d="M38.6411 19.1886C38.088 19.1886 37.5348 19.1446 36.9817 19.0566C36.4286 18.9811 35.9068 18.8617 35.4165 18.6983C34.9263 18.5223 34.4863 18.3086 34.0965 18.0571C33.8702 17.9063 33.7131 17.724 33.6251 17.5103C33.5371 17.2966 33.5057 17.0891 33.5308 16.888C33.5685 16.6743 33.6502 16.492 33.776 16.3411C33.9142 16.1777 34.084 16.0771 34.2851 16.0394C34.4863 16.0017 34.7063 16.0583 34.9451 16.2091C35.4983 16.536 36.0828 16.7748 36.6988 16.9257C37.3148 17.0766 37.9623 17.152 38.6411 17.152C39.6343 17.152 40.3571 16.9886 40.8097 16.6617C41.2623 16.3223 41.4886 15.8886 41.4886 15.3605C41.4886 14.9205 41.3252 14.5748 40.9983 14.3234C40.684 14.072 40.1371 13.8645 39.3577 13.7011L37.2834 13.2674C36.0891 13.016 35.1965 12.5948 34.6057 12.004C34.0274 11.4005 33.7382 10.6085 33.7382 9.62794C33.7382 9.01193 33.864 8.4525 34.1154 7.94964C34.3668 7.44678 34.7188 7.01306 35.1714 6.64849C35.6365 6.28392 36.1834 6.00734 36.812 5.81877C37.4531 5.61763 38.1571 5.51705 38.924 5.51705C39.6783 5.51705 40.3949 5.61134 41.0737 5.79991C41.7526 5.98849 42.3623 6.26506 42.9029 6.62963C43.104 6.76792 43.236 6.93764 43.2989 7.13878C43.3743 7.33992 43.3932 7.54107 43.3555 7.74221C43.3177 7.93078 43.2297 8.09421 43.0915 8.2325C42.9532 8.37079 42.7772 8.4525 42.5634 8.47765C42.3623 8.50279 42.1297 8.43993 41.8657 8.28907C41.4006 8.02507 40.9292 7.8365 40.4514 7.72335C39.9737 7.61021 39.4583 7.55364 38.9051 7.55364C38.3268 7.55364 37.8303 7.63535 37.4154 7.79878C37.0006 7.96221 36.68 8.19479 36.4537 8.4965C36.24 8.78565 36.1331 9.13136 36.1331 9.53365C36.1331 9.98623 36.284 10.3508 36.5857 10.6274C36.8874 10.8914 37.4028 11.0988 38.132 11.2497L40.1874 11.6834C41.432 11.9474 42.356 12.3622 42.9595 12.928C43.5755 13.4937 43.8835 14.248 43.8835 15.1908C43.8835 15.7943 43.7577 16.3411 43.5063 16.8314C43.2675 17.3217 42.9155 17.7428 42.4503 18.0949C41.9977 18.4469 41.4509 18.7171 40.8097 18.9057C40.1686 19.0943 39.4457 19.1886 38.6411 19.1886ZM46.898 22.5452C46.5208 22.5452 46.2317 22.4446 46.0305 22.2434C45.8294 22.0423 45.7288 21.7469 45.7288 21.3572V10.8159C45.7288 10.4262 45.8294 10.1308 46.0305 9.92965C46.2317 9.72851 46.5145 9.62794 46.8791 9.62794C47.2563 9.62794 47.5454 9.72851 47.7465 9.92965C47.9477 10.1308 48.0483 10.4262 48.0483 10.8159V12.2868L47.8408 11.7211C48.0294 11.0799 48.4128 10.5645 48.9911 10.1748C49.582 9.78508 50.2671 9.59022 51.0466 9.59022C51.8511 9.59022 52.5551 9.78508 53.1586 10.1748C53.7746 10.5645 54.2523 11.1177 54.5917 11.8342C54.9312 12.5382 55.1009 13.3868 55.1009 14.38C55.1009 15.3605 54.9312 16.2154 54.5917 16.9446C54.2523 17.6611 53.7809 18.2143 53.1774 18.604C52.574 18.9937 51.8637 19.1886 51.0466 19.1886C50.2797 19.1886 49.6071 19 49.0288 18.6229C48.4505 18.2331 48.0608 17.7303 47.8597 17.1143H48.086V21.3572C48.086 21.7469 47.9791 22.0423 47.7654 22.2434C47.5643 22.4446 47.2751 22.5452 46.898 22.5452ZM50.3866 17.3971C50.8517 17.3971 51.2603 17.284 51.6123 17.0577C51.9643 16.8314 52.2346 16.4983 52.4231 16.0583C52.6243 15.6057 52.7249 15.0463 52.7249 14.38C52.7249 13.3742 52.5111 12.6262 52.0837 12.136C51.6563 11.6331 51.0906 11.3817 50.3866 11.3817C49.9214 11.3817 49.5128 11.4948 49.1608 11.7211C48.8088 11.9348 48.5323 12.268 48.3311 12.7205C48.1425 13.1605 48.0483 13.7137 48.0483 14.38C48.0483 15.3731 48.262 16.1274 48.6894 16.6428C49.1168 17.1457 49.6826 17.3971 50.3866 17.3971ZM61.241 19.1886C60.2855 19.1886 59.4558 18.9937 58.7518 18.604C58.0478 18.2143 57.501 17.6611 57.1112 16.9446C56.7215 16.2154 56.5267 15.3605 56.5267 14.38C56.5267 13.6383 56.6335 12.9782 56.8472 12.4C57.0735 11.8091 57.3941 11.3062 57.809 10.8914C58.2238 10.4639 58.7204 10.1434 59.2987 9.92965C59.877 9.70337 60.5244 9.59022 61.241 9.59022C62.1964 9.59022 63.0261 9.78508 63.7301 10.1748C64.4341 10.5645 64.981 11.1177 65.3707 11.8342C65.7604 12.5508 65.9553 13.3994 65.9553 14.38C65.9553 15.1217 65.8422 15.788 65.6159 16.3788C65.4022 16.9697 65.0879 17.4788 64.673 17.9063C64.2581 18.3211 63.7616 18.6417 63.1833 18.868C62.605 19.0817 61.9576 19.1886 61.241 19.1886ZM61.241 17.3971C61.7061 17.3971 62.1147 17.284 62.4667 17.0577C62.8187 16.8314 63.089 16.4983 63.2776 16.0583C63.4787 15.6057 63.5793 15.0463 63.5793 14.38C63.5793 13.3742 63.3656 12.6262 62.9381 12.136C62.5107 11.6331 61.945 11.3817 61.241 11.3817C60.7758 11.3817 60.3673 11.4948 60.0153 11.7211C59.6633 11.9348 59.3867 12.268 59.1855 12.7205C58.997 13.1605 58.9027 13.7137 58.9027 14.38C58.9027 15.3731 59.1164 16.1274 59.5438 16.6428C59.9713 17.1457 60.537 17.3971 61.241 17.3971ZM72.0328 19.1886C71.2156 19.1886 70.5305 19.0503 69.9773 18.7737C69.4368 18.4971 69.0345 18.0949 68.7705 17.5668C68.5065 17.0263 68.3745 16.36 68.3745 15.568V11.5514H67.3939C67.0922 11.5514 66.8596 11.476 66.6962 11.3251C66.5328 11.1617 66.451 10.9417 66.451 10.6651C66.451 10.3759 66.5328 10.1559 66.6962 10.0051C66.8596 9.85423 67.0922 9.7788 67.3939 9.7788H68.3745V8.06279C68.3745 7.67307 68.4751 7.37764 68.6762 7.17649C68.8899 6.97535 69.1853 6.87478 69.5625 6.87478C69.9396 6.87478 70.2288 6.97535 70.4299 7.17649C70.6311 7.37764 70.7316 7.67307 70.7316 8.06279V9.7788H72.7305C73.0322 9.7788 73.2648 9.85423 73.4282 10.0051C73.5917 10.1559 73.6734 10.3759 73.6734 10.6651C73.6734 10.9417 73.5917 11.1617 73.4282 11.3251C73.2648 11.476 73.0322 11.5514 72.7305 11.5514H70.7316V15.436C70.7316 16.0394 70.8636 16.492 71.1276 16.7937C71.3916 17.0954 71.8191 17.2463 72.4099 17.2463C72.6236 17.2463 72.8122 17.2274 72.9757 17.1897C73.1391 17.152 73.2837 17.1268 73.4094 17.1143C73.5602 17.1017 73.6859 17.152 73.7865 17.2651C73.8871 17.3657 73.9374 17.5794 73.9374 17.9063C73.9374 18.1577 73.8934 18.384 73.8054 18.5851C73.7299 18.7737 73.5854 18.9057 73.3717 18.9811C73.2082 19.0314 72.9945 19.0754 72.7305 19.1131C72.4665 19.1634 72.2339 19.1886 72.0328 19.1886ZM78.736 19.1886C77.9188 19.1886 77.2337 19.0503 76.6805 18.7737C76.1399 18.4971 75.7376 18.0949 75.4736 17.5668C75.2096 17.0263 75.0776 16.36 75.0776 15.568V11.5514H74.0971C73.7954 11.5514 73.5628 11.476 73.3993 11.3251C73.2359 11.1617 73.1542 10.9417 73.1542 10.6651C73.1542 10.3759 73.2359 10.1559 73.3993 10.0051C73.5628 9.85423 73.7954 9.7788 74.0971 9.7788H75.0776V8.06279C75.0776 7.67307 75.1782 7.37764 75.3794 7.17649C75.5931 6.97535 75.8885 6.87478 76.2657 6.87478C76.6428 6.87478 76.9319 6.97535 77.1331 7.17649C77.3342 7.37764 77.4348 7.67307 77.4348 8.06279V9.7788H79.4337C79.7354 9.7788 79.968 9.85423 80.1314 10.0051C80.2948 10.1559 80.3765 10.3759 80.3765 10.6651C80.3765 10.9417 80.2948 11.1617 80.1314 11.3251C79.968 11.476 79.7354 11.5514 79.4337 11.5514H77.4348V15.436C77.4348 16.0394 77.5668 16.492 77.8308 16.7937C78.0948 17.0954 78.5222 17.2463 79.1131 17.2463C79.3268 17.2463 79.5154 17.2274 79.6788 17.1897C79.8422 17.152 79.9868 17.1268 80.1125 17.1143C80.2634 17.1017 80.3891 17.152 80.4897 17.2651C80.5903 17.3657 80.6405 17.5794 80.6405 17.9063C80.6405 18.1577 80.5965 18.384 80.5085 18.5851C80.4331 18.7737 80.2885 18.9057 80.0748 18.9811C79.9114 19.0314 79.6977 19.0754 79.4337 19.1131C79.1697 19.1634 78.9371 19.1886 78.736 19.1886ZM82.956 19.1509C82.5663 19.1509 82.2646 19.0503 82.0509 18.8491C81.8497 18.6354 81.7491 18.3337 81.7491 17.944V10.8159C81.7491 10.4262 81.8497 10.1308 82.0509 9.92965C82.252 9.72851 82.5349 9.62794 82.8994 9.62794C83.264 9.62794 83.5469 9.72851 83.748 9.92965C83.9492 10.1308 84.0497 10.4262 84.0497 10.8159V12.004H83.8612C84.0372 11.2497 84.3829 10.6777 84.8983 10.2879C85.4137 9.89823 86.0989 9.66565 86.9537 9.59022C87.2177 9.56508 87.4252 9.63422 87.576 9.79765C87.7395 9.94851 87.8338 10.1874 87.8589 10.5142C87.884 10.8285 87.8086 11.0862 87.6326 11.2874C87.4692 11.476 87.2177 11.5891 86.8783 11.6268L86.4635 11.6645C85.6966 11.74 85.1183 11.9788 84.7286 12.3811C84.3389 12.7708 84.144 13.324 84.144 14.0405V17.944C84.144 18.3337 84.0434 18.6354 83.8423 18.8491C83.6412 19.0503 83.3457 19.1509 82.956 19.1509Z" fill="#274B89"/>
</svg>
