<svg width="17" height="12" viewBox="0 0 17 12" fill="none" xmlns="http://www.w3.org/2000/svg">
<path d="M2.25 0C1.71957 0 1.21086 0.210714 0.835786 0.585786C0.460714 0.960859 0.25 1.46957 0.25 2L0.25 10C0.25 10.5304 0.460714 11.0391 0.835786 11.4142C1.21086 11.7893 1.71957 12 2.25 12H14.25C14.7804 12 15.2891 11.7893 15.6642 11.4142C16.0393 11.0391 16.25 10.5304 16.25 10V2C16.25 1.46957 16.0393 0.960859 15.6642 0.585786C15.2891 0.210714 14.7804 0 14.25 0H2.25ZM8.459 6.32C8.459 5.04 9.153 4.276 10.212 4.276C10.867 4.276 11.368 4.57 11.548 5.045H11.601V2.685H12.761V9H11.623V8.253H11.566C11.421 8.727 10.876 9.057 10.199 9.057C9.144 9.057 8.459 8.293 8.459 7.014V6.319V6.32ZM4.419 7.458L3.95 9H2.75L4.763 3.001H6.15L8.155 9H6.894L6.424 7.458H4.42H4.419Z" fill="#929AA7"/>
</svg>
