<svg width="24" height="24" viewBox="0 0 24 24" fill="none" xmlns="http://www.w3.org/2000/svg">
<g clip-path="url(#clip0_33477_6518)">
<path d="M5.91136 14.5035L5.10925 17.6222L2.17756 17.6868C1.30141 15.9943 0.804443 14.0578 0.804443 12C0.804443 10.0101 1.26909 8.13362 2.09272 6.48132H2.09335L4.70338 6.9797L5.84673 9.68176C5.60743 10.4084 5.477 11.1884 5.477 12C5.47709 12.8809 5.6303 13.7249 5.91136 14.5035Z" fill="#FBBB00"/>
<path d="M23.6467 9.75824C23.779 10.4841 23.848 11.2338 23.848 12C23.848 12.8591 23.7613 13.6971 23.5961 14.5055C23.0352 17.2563 21.5697 19.6582 19.5394 21.358L19.5388 21.3574L16.2513 21.1827L15.7861 18.1576C17.1332 17.3347 18.186 16.047 18.7406 14.5055H12.5796V9.75824H18.8305H23.6467Z" fill="#518EF8"/>
<path d="M19.5386 21.3574L19.5392 21.358C17.5647 23.011 15.0565 24 12.3261 24C7.93836 24 4.12354 21.4457 2.17749 17.6868L5.9113 14.5035C6.8843 17.2081 9.38933 19.1334 12.3261 19.1334C13.5884 19.1334 14.771 18.778 15.7858 18.1576L19.5386 21.3574Z" fill="#28B446"/>
<path d="M19.6805 2.76262L15.948 5.94525C14.8977 5.26153 13.6563 4.86656 12.3262 4.86656C9.32298 4.86656 6.77109 6.88017 5.84684 9.68175L2.0934 6.48131H2.09277C4.01033 2.63077 7.87327 0 12.3262 0C15.1218 0 17.6851 1.03716 19.6805 2.76262Z" fill="#F14336"/>
</g>
<defs>
<clipPath id="clip0_33477_6518">
<rect width="23.0435" height="24" fill="white" transform="translate(0.804443)"/>
</clipPath>
</defs>
</svg>
