<svg width="24" height="24" viewBox="0 0 24 24" fill="none" xmlns="http://www.w3.org/2000/svg">
<path d="M2.60006 13.083L6.05206 14.594L16.0001 9.16703L10.0001 16.167L18.6001 20.083C18.7471 20.1474 18.9076 20.1755 19.0678 20.1648C19.228 20.1541 19.3833 20.105 19.5205 20.0217C19.6577 19.9383 19.7728 19.8231 19.8561 19.6858C19.9394 19.5485 19.9885 19.3932 19.9991 19.233L20.9991 4.23303C21.0102 4.05941 20.9759 3.88589 20.8997 3.72953C20.8234 3.57317 20.7077 3.43937 20.564 3.34129C20.4203 3.24321 20.2536 3.18423 20.0802 3.17015C19.9068 3.15608 19.7327 3.1874 19.5751 3.26103L2.57506 11.261C2.40165 11.3433 2.25552 11.4736 2.15404 11.6366C2.05257 11.7995 2.00002 11.9881 2.00266 12.1801C2.00529 12.372 2.06299 12.5591 2.1689 12.7192C2.2748 12.8793 2.42445 13.0055 2.60006 13.083ZM8.00006 22.167L12.7761 19.851L8.00006 17.623V22.167Z" fill="#929AA7"/>
</svg>
