<svg width="18" height="16" viewBox="0 0 18 16" fill="none" xmlns="http://www.w3.org/2000/svg">
<path d="M15.2484 8.69527C15.2852 8.44777 15.3035 8.19203 15.3035 7.91979C15.3035 7.6558 15.2852 7.3918 15.2392 7.14431L17.1064 5.84084C17.1869 5.78136 17.2419 5.6987 17.262 5.60694C17.2821 5.51517 17.2662 5.41999 17.2168 5.33761L15.4507 2.59868C15.3987 2.51582 15.3157 2.45215 15.2164 2.41893C15.117 2.38571 15.0078 2.38509 14.908 2.41719L12.7096 3.20917C12.2497 2.89567 11.7622 2.63168 11.2195 2.43369L10.8883 0.338243C10.872 0.243808 10.8185 0.157744 10.7375 0.0956801C10.6565 0.0336162 10.5533 -0.000331232 10.4468 2.43649e-06H6.91462C6.69386 2.43649e-06 6.51909 0.140249 6.4823 0.338243L6.15115 2.43369C5.60845 2.63168 5.11174 2.90392 4.66102 3.20917L2.4626 2.41719C2.26024 2.35119 2.03028 2.41719 1.9199 2.59868L0.163005 5.33761C0.0526247 5.51085 0.0894181 5.72535 0.273386 5.84084L2.14066 7.14431C2.09467 7.3918 2.05787 7.66405 2.05787 7.91979C2.05787 8.17553 2.07627 8.44777 2.12226 8.69527L0.254989 9.99873C0.174525 10.0582 0.119546 10.1409 0.0994191 10.2326C0.079292 10.3244 0.0952622 10.4196 0.144609 10.502L1.9107 13.2409C2.02108 13.4224 2.25104 13.4801 2.4534 13.4224L4.65182 12.6304C5.11174 12.9439 5.59925 13.2079 6.14196 13.4059L6.4731 15.5013C6.51909 15.6993 6.69386 15.8396 6.91462 15.8396H10.4468C10.6676 15.8396 10.8515 15.6993 10.8791 15.5013L11.2103 13.4059C11.753 13.2079 12.2497 12.9439 12.7004 12.6304L14.8988 13.4224C15.1012 13.4884 15.3311 13.4224 15.4415 13.2409L17.2076 10.502C17.318 10.3205 17.272 10.1142 17.0972 9.99873L15.2484 8.69527ZM8.68071 10.8897C6.85943 10.8897 5.36929 9.55324 5.36929 7.91979C5.36929 6.28633 6.85943 4.94987 8.68071 4.94987C10.502 4.94987 11.9921 6.28633 11.9921 7.91979C11.9921 9.55324 10.502 10.8897 8.68071 10.8897Z" fill="#929AA7"/>
</svg>
